<svg width="359" height="154" viewBox="0 0 359 154" fill="none" xmlns="http://www.w3.org/2000/svg">
<path d="M81.2801 23.6667H46.7201C26.6667 23.6667 25.1201 41.6934 35.9467 51.5067L92.0534 102.493C102.88 112.307 101.333 130.333 81.2801 130.333H46.7201C26.6667 130.333 25.1201 112.307 35.9467 102.493L92.0534 51.5067C102.88 41.6934 101.333 23.6667 81.2801 23.6667Z" stroke="white" stroke-width="12" stroke-linecap="round" stroke-linejoin="round"/>
<path d="M173.114 31.75H163.159C162.977 30.4621 162.606 29.3182 162.045 28.3182C161.485 27.303 160.765 26.4394 159.886 25.7273C159.008 25.0151 157.992 24.4697 156.841 24.0909C155.705 23.7121 154.47 23.5227 153.136 23.5227C150.727 23.5227 148.629 24.1212 146.841 25.3182C145.053 26.5 143.667 28.2273 142.682 30.5C141.697 32.7576 141.205 35.5 141.205 38.7273C141.205 42.0455 141.697 44.8333 142.682 47.0909C143.682 49.3485 145.076 51.053 146.864 52.2045C148.652 53.3561 150.72 53.9318 153.068 53.9318C154.386 53.9318 155.606 53.7576 156.727 53.4091C157.864 53.0606 158.871 52.553 159.75 51.8864C160.629 51.2045 161.356 50.3788 161.932 49.4091C162.523 48.4394 162.932 47.3333 163.159 46.0909L173.114 46.1364C172.856 48.2727 172.212 50.3333 171.182 52.3182C170.167 54.2879 168.795 56.053 167.068 57.6136C165.356 59.1591 163.311 60.3864 160.932 61.2955C158.568 62.1894 155.894 62.6364 152.909 62.6364C148.758 62.6364 145.045 61.697 141.773 59.8182C138.515 57.9394 135.939 55.2197 134.045 51.6591C132.167 48.0985 131.227 43.7879 131.227 38.7273C131.227 33.6515 132.182 29.3333 134.091 25.7727C136 22.2121 138.591 19.5 141.864 17.6364C145.136 15.7576 148.818 14.8182 152.909 14.8182C155.606 14.8182 158.106 15.197 160.409 15.9545C162.727 16.7121 164.78 17.8182 166.568 19.2727C168.356 20.7121 169.811 22.4773 170.932 24.5682C172.068 26.6591 172.795 29.053 173.114 31.75ZM189.67 41.8182V62H179.989V15.4545H189.398V33.25H189.807C190.595 31.1894 191.867 29.5758 193.625 28.4091C195.383 27.2273 197.587 26.6364 200.239 26.6364C202.663 26.6364 204.777 27.1667 206.58 28.2273C208.398 29.2727 209.807 30.7803 210.807 32.75C211.822 34.7045 212.322 37.0455 212.307 39.7727V62H202.625V41.5C202.64 39.3485 202.095 37.6742 200.989 36.4773C199.898 35.2803 198.367 34.6818 196.398 34.6818C195.08 34.6818 193.913 34.9621 192.898 35.5227C191.898 36.0833 191.11 36.9015 190.534 37.9773C189.973 39.0379 189.686 40.3182 189.67 41.8182ZM219.926 62V27.0909H229.312V33.1818H229.676C230.313 31.0152 231.381 29.3788 232.881 28.2727C234.381 27.1515 236.108 26.5909 238.062 26.5909C238.547 26.5909 239.07 26.6212 239.631 26.6818C240.191 26.7424 240.684 26.8258 241.108 26.9318V35.5227C240.653 35.3864 240.025 35.2652 239.222 35.1591C238.419 35.053 237.684 35 237.017 35C235.593 35 234.32 35.3106 233.199 35.9318C232.093 36.5379 231.214 37.3864 230.562 38.4773C229.926 39.5682 229.608 40.8258 229.608 42.25V62H219.926ZM260.261 62.6818C256.731 62.6818 253.678 61.9318 251.102 60.4318C248.542 58.9167 246.564 56.8106 245.17 54.1136C243.777 51.4015 243.08 48.2576 243.08 44.6818C243.08 41.0758 243.777 37.9242 245.17 35.2273C246.564 32.5152 248.542 30.4091 251.102 28.9091C253.678 27.3939 256.731 26.6364 260.261 26.6364C263.792 26.6364 266.837 27.3939 269.398 28.9091C271.973 30.4091 273.958 32.5152 275.352 35.2273C276.746 37.9242 277.443 41.0758 277.443 44.6818C277.443 48.2576 276.746 51.4015 275.352 54.1136C273.958 56.8106 271.973 58.9167 269.398 60.4318C266.837 61.9318 263.792 62.6818 260.261 62.6818ZM260.307 55.1818C261.913 55.1818 263.254 54.7273 264.33 53.8182C265.405 52.8939 266.216 51.6364 266.761 50.0455C267.322 48.4545 267.602 46.6439 267.602 44.6136C267.602 42.5833 267.322 40.7727 266.761 39.1818C266.216 37.5909 265.405 36.3333 264.33 35.4091C263.254 34.4848 261.913 34.0227 260.307 34.0227C258.686 34.0227 257.322 34.4848 256.216 35.4091C255.125 36.3333 254.299 37.5909 253.739 39.1818C253.193 40.7727 252.92 42.5833 252.92 44.6136C252.92 46.6439 253.193 48.4545 253.739 50.0455C254.299 51.6364 255.125 52.8939 256.216 53.8182C257.322 54.7273 258.686 55.1818 260.307 55.1818ZM293.42 41.8182V62H283.739V27.0909H292.966V33.25H293.375C294.148 31.2197 295.443 29.6136 297.261 28.4318C299.08 27.2348 301.284 26.6364 303.875 26.6364C306.299 26.6364 308.413 27.1667 310.216 28.2273C312.019 29.2879 313.42 30.803 314.42 32.7727C315.42 34.7273 315.92 37.0606 315.92 39.7727V62H306.239V41.5C306.254 39.3636 305.708 37.697 304.602 36.5C303.496 35.2879 301.973 34.6818 300.034 34.6818C298.731 34.6818 297.58 34.9621 296.58 35.5227C295.595 36.0833 294.822 36.9015 294.261 37.9773C293.716 39.0379 293.436 40.3182 293.42 41.8182ZM339.324 62.6818C335.794 62.6818 332.741 61.9318 330.165 60.4318C327.604 58.9167 325.627 56.8106 324.233 54.1136C322.839 51.4015 322.142 48.2576 322.142 44.6818C322.142 41.0758 322.839 37.9242 324.233 35.2273C325.627 32.5152 327.604 30.4091 330.165 28.9091C332.741 27.3939 335.794 26.6364 339.324 26.6364C342.854 26.6364 345.9 27.3939 348.46 28.9091C351.036 30.4091 353.021 32.5152 354.415 35.2273C355.809 37.9242 356.506 41.0758 356.506 44.6818C356.506 48.2576 355.809 51.4015 354.415 54.1136C353.021 56.8106 351.036 58.9167 348.46 60.4318C345.9 61.9318 342.854 62.6818 339.324 62.6818ZM339.369 55.1818C340.975 55.1818 342.316 54.7273 343.392 53.8182C344.468 52.8939 345.278 51.6364 345.824 50.0455C346.384 48.4545 346.665 46.6439 346.665 44.6136C346.665 42.5833 346.384 40.7727 345.824 39.1818C345.278 37.5909 344.468 36.3333 343.392 35.4091C342.316 34.4848 340.975 34.0227 339.369 34.0227C337.748 34.0227 336.384 34.4848 335.278 35.4091C334.188 36.3333 333.362 37.5909 332.801 39.1818C332.256 40.7727 331.983 42.5833 331.983 44.6136C331.983 46.6439 332.256 48.4545 332.801 50.0455C333.362 51.6364 334.188 52.8939 335.278 53.8182C336.384 54.7273 337.748 55.1818 339.369 55.1818ZM173.114 108.75H163.159C162.977 107.462 162.606 106.318 162.045 105.318C161.485 104.303 160.765 103.439 159.886 102.727C159.008 102.015 157.992 101.47 156.841 101.091C155.705 100.712 154.47 100.523 153.136 100.523C150.727 100.523 148.629 101.121 146.841 102.318C145.053 103.5 143.667 105.227 142.682 107.5C141.697 109.758 141.205 112.5 141.205 115.727C141.205 119.045 141.697 121.833 142.682 124.091C143.682 126.348 145.076 128.053 146.864 129.205C148.652 130.356 150.72 130.932 153.068 130.932C154.386 130.932 155.606 130.758 156.727 130.409C157.864 130.061 158.871 129.553 159.75 128.886C160.629 128.205 161.356 127.379 161.932 126.409C162.523 125.439 162.932 124.333 163.159 123.091L173.114 123.136C172.856 125.273 172.212 127.333 171.182 129.318C170.167 131.288 168.795 133.053 167.068 134.614C165.356 136.159 163.311 137.386 160.932 138.295C158.568 139.189 155.894 139.636 152.909 139.636C148.758 139.636 145.045 138.697 141.773 136.818C138.515 134.939 135.939 132.22 134.045 128.659C132.167 125.098 131.227 120.788 131.227 115.727C131.227 110.652 132.182 106.333 134.091 102.773C136 99.2121 138.591 96.5 141.864 94.6364C145.136 92.7576 148.818 91.8182 152.909 91.8182C155.606 91.8182 158.106 92.197 160.409 92.9545C162.727 93.7121 164.78 94.8182 166.568 96.2727C168.356 97.7121 169.811 99.4773 170.932 101.568C172.068 103.659 172.795 106.053 173.114 108.75ZM189.67 118.818V139H179.989V92.4545H189.398V110.25H189.807C190.595 108.189 191.867 106.576 193.625 105.409C195.383 104.227 197.587 103.636 200.239 103.636C202.663 103.636 204.777 104.167 206.58 105.227C208.398 106.273 209.807 107.78 210.807 109.75C211.822 111.705 212.322 114.045 212.307 116.773V139H202.625V118.5C202.64 116.348 202.095 114.674 200.989 113.477C199.898 112.28 198.367 111.682 196.398 111.682C195.08 111.682 193.913 111.962 192.898 112.523C191.898 113.083 191.11 113.902 190.534 114.977C189.973 116.038 189.686 117.318 189.67 118.818ZM229.881 139.659C227.653 139.659 225.669 139.273 223.926 138.5C222.184 137.712 220.805 136.553 219.79 135.023C218.79 133.477 218.29 131.553 218.29 129.25C218.29 127.311 218.646 125.682 219.358 124.364C220.07 123.045 221.04 121.985 222.267 121.182C223.494 120.379 224.888 119.773 226.449 119.364C228.025 118.955 229.676 118.667 231.403 118.5C233.434 118.288 235.07 118.091 236.312 117.909C237.555 117.712 238.456 117.424 239.017 117.045C239.578 116.667 239.858 116.106 239.858 115.364V115.227C239.858 113.788 239.403 112.674 238.494 111.886C237.6 111.098 236.328 110.705 234.676 110.705C232.934 110.705 231.547 111.091 230.517 111.864C229.487 112.621 228.805 113.576 228.472 114.727L219.517 114C219.972 111.879 220.866 110.045 222.199 108.5C223.532 106.939 225.252 105.742 227.358 104.909C229.479 104.061 231.934 103.636 234.722 103.636C236.661 103.636 238.517 103.864 240.29 104.318C242.078 104.773 243.661 105.477 245.04 106.432C246.434 107.386 247.532 108.614 248.335 110.114C249.138 111.598 249.54 113.379 249.54 115.455V139H240.358V134.159H240.085C239.525 135.25 238.775 136.212 237.835 137.045C236.896 137.864 235.767 138.508 234.449 138.977C233.131 139.432 231.608 139.659 229.881 139.659ZM232.653 132.977C234.078 132.977 235.335 132.697 236.426 132.136C237.517 131.561 238.373 130.788 238.994 129.818C239.616 128.848 239.926 127.75 239.926 126.523V122.818C239.623 123.015 239.206 123.197 238.676 123.364C238.161 123.515 237.578 123.659 236.926 123.795C236.275 123.917 235.623 124.03 234.972 124.136C234.32 124.227 233.729 124.311 233.199 124.386C232.063 124.553 231.07 124.818 230.222 125.182C229.373 125.545 228.714 126.038 228.244 126.659C227.775 127.265 227.54 128.023 227.54 128.932C227.54 130.25 228.017 131.258 228.972 131.955C229.941 132.636 231.169 132.977 232.653 132.977ZM275.619 104.091V111.364H254.597V104.091H275.619ZM259.369 95.7273H269.051V128.273C269.051 129.167 269.188 129.864 269.46 130.364C269.733 130.848 270.112 131.189 270.597 131.386C271.097 131.583 271.672 131.682 272.324 131.682C272.778 131.682 273.233 131.644 273.688 131.568C274.142 131.477 274.491 131.409 274.733 131.364L276.256 138.568C275.771 138.72 275.089 138.894 274.21 139.091C273.331 139.303 272.263 139.432 271.006 139.477C268.672 139.568 266.627 139.258 264.869 138.545C263.127 137.833 261.771 136.727 260.801 135.227C259.831 133.727 259.354 131.833 259.369 129.545V95.7273Z" fill="white"/>
</svg>
