<svg width="24" height="24" viewBox="0 0 24 24" fill="none" xmlns="http://www.w3.org/2000/svg">
<path d="M21 22H3C2.59 22 2.25 21.66 2.25 21.25C2.25 20.84 2.59 20.5 3 20.5H21C21.41 20.5 21.75 20.84 21.75 21.25C21.75 21.66 21.41 22 21 22Z" fill="white"/>
<path d="M19.0201 3.47991C17.0801 1.53991 15.1801 1.48991 13.1901 3.47991L11.9801 4.68991C11.8801 4.78991 11.8401 4.94991 11.8801 5.08991C12.6401 7.73991 14.7601 9.85991 17.4101 10.6199C17.4501 10.6299 17.4901 10.6399 17.5301 10.6399C17.6401 10.6399 17.7401 10.5999 17.8201 10.5199L19.0201 9.30991C20.0101 8.32991 20.4901 7.37991 20.4901 6.41991C20.5001 5.42991 20.0201 4.46991 19.0201 3.47991Z" fill="white"/>
<path d="M15.6101 11.53C15.3201 11.39 15.0401 11.25 14.7701 11.09C14.5501 10.96 14.3401 10.82 14.1301 10.67C13.9601 10.56 13.7601 10.4 13.5701 10.24C13.5501 10.23 13.4801 10.17 13.4001 10.09C13.0701 9.81005 12.7001 9.45005 12.3701 9.05005C12.3401 9.03005 12.2901 8.96005 12.2201 8.87005C12.1201 8.75005 11.9501 8.55005 11.8001 8.32005C11.6801 8.17005 11.5401 7.95005 11.4101 7.73005C11.2501 7.46005 11.1101 7.19005 10.9701 6.91005C10.9489 6.86465 10.9284 6.81949 10.9085 6.77458C10.7609 6.44127 10.3263 6.34382 10.0685 6.60158L4.34007 12.33C4.21007 12.46 4.09007 12.71 4.06007 12.88L3.52007 16.71C3.42007 17.39 3.61007 18.03 4.03007 18.46C4.39007 18.81 4.89007 19 5.43007 19C5.55007 19 5.67007 18.99 5.79007 18.97L9.63007 18.43C9.81007 18.4 10.0601 18.28 10.1801 18.15L15.9014 12.4287C16.1609 12.1692 16.063 11.7237 15.7254 11.5797C15.6874 11.5634 15.649 11.5469 15.6101 11.53Z" fill="white"/>
</svg>
