<svg width="239" height="104" viewBox="0 0 239 104" fill="none" xmlns="http://www.w3.org/2000/svg">
<path d="M54.1867 16.1112H31.1467C17.7778 16.1112 16.7467 28.129 23.9644 34.6712L61.3689 68.6623C68.5867 75.2045 67.5556 87.2223 54.1867 87.2223H31.1467C17.7778 87.2223 16.7467 75.2045 23.9644 68.6623L61.3689 34.6712C68.5867 28.129 67.5556 16.1112 54.1867 16.1112Z" stroke="white" stroke-width="8" stroke-linecap="round" stroke-linejoin="round"/>
<path d="M115.076 21.8333H108.439C108.318 20.9747 108.071 20.2121 107.697 19.5455C107.323 18.8687 106.843 18.2929 106.258 17.8182C105.672 17.3434 104.995 16.9798 104.227 16.7273C103.47 16.4747 102.646 16.3485 101.758 16.3485C100.152 16.3485 98.7525 16.7475 97.5606 17.5455C96.3687 18.3333 95.4444 19.4848 94.7879 21C94.1313 22.505 93.803 24.3333 93.803 26.4848C93.803 28.697 94.1313 30.5556 94.7879 32.0606C95.4545 33.5657 96.3838 34.702 97.5758 35.4697C98.7677 36.2374 100.146 36.6212 101.712 36.6212C102.591 36.6212 103.404 36.5051 104.152 36.2727C104.909 36.0404 105.581 35.702 106.167 35.2576C106.753 34.803 107.237 34.2525 107.621 33.6061C108.015 32.9596 108.288 32.2222 108.439 31.3939L115.076 31.4242C114.904 32.8485 114.475 34.2222 113.788 35.5455C113.111 36.8586 112.197 38.0354 111.045 39.0758C109.904 40.1061 108.54 40.9242 106.955 41.5303C105.379 42.1263 103.596 42.4242 101.606 42.4242C98.8384 42.4242 96.3636 41.798 94.1818 40.5455C92.0101 39.2929 90.2929 37.4798 89.0303 35.1061C87.7778 32.7323 87.1515 29.8586 87.1515 26.4848C87.1515 23.101 87.7879 20.2222 89.0606 17.8485C90.3333 15.4747 92.0606 13.6667 94.2424 12.4242C96.4242 11.1717 98.8788 10.5455 101.606 10.5455C103.404 10.5455 105.071 10.798 106.606 11.303C108.152 11.8081 109.52 12.5455 110.712 13.5151C111.904 14.4747 112.874 15.6515 113.621 17.0455C114.379 18.4394 114.864 20.0354 115.076 21.8333ZM126.114 28.5455V42H119.659V10.9697H125.932V22.8333H126.205C126.73 21.4596 127.578 20.3838 128.75 19.6061C129.922 18.8182 131.391 18.4242 133.159 18.4242C134.775 18.4242 136.184 18.7778 137.386 19.4848C138.598 20.1818 139.538 21.1869 140.205 22.5C140.881 23.803 141.215 25.3636 141.205 27.1818V42H134.75V28.3333C134.76 26.899 134.396 25.7828 133.659 24.9848C132.932 24.1869 131.912 23.7879 130.598 23.7879C129.72 23.7879 128.942 23.9747 128.265 24.3485C127.598 24.7222 127.073 25.2677 126.689 25.9848C126.316 26.6919 126.124 27.5455 126.114 28.5455ZM146.284 42V18.7273H152.542V22.7879H152.784C153.208 21.3434 153.92 20.2525 154.92 19.5152C155.92 18.7677 157.072 18.3939 158.375 18.3939C158.698 18.3939 159.047 18.4141 159.42 18.4545C159.794 18.4949 160.122 18.5505 160.405 18.6212V24.3485C160.102 24.2576 159.683 24.1768 159.148 24.1061C158.612 24.0354 158.122 24 157.678 24C156.729 24 155.88 24.2071 155.133 24.6212C154.395 25.0253 153.809 25.5909 153.375 26.3182C152.951 27.0455 152.739 27.8838 152.739 28.8333V42H146.284ZM173.174 42.4545C170.821 42.4545 168.785 41.9545 167.068 40.9545C165.361 39.9444 164.043 38.5404 163.114 36.7424C162.184 34.9343 161.72 32.8384 161.72 30.4545C161.72 28.0505 162.184 25.9495 163.114 24.1515C164.043 22.3434 165.361 20.9394 167.068 19.9394C168.785 18.9293 170.821 18.4242 173.174 18.4242C175.528 18.4242 177.558 18.9293 179.265 19.9394C180.982 20.9394 182.306 22.3434 183.235 24.1515C184.164 25.9495 184.629 28.0505 184.629 30.4545C184.629 32.8384 184.164 34.9343 183.235 36.7424C182.306 38.5404 180.982 39.9444 179.265 40.9545C177.558 41.9545 175.528 42.4545 173.174 42.4545ZM173.205 37.4545C174.275 37.4545 175.169 37.1515 175.886 36.5455C176.604 35.9293 177.144 35.0909 177.508 34.0303C177.881 32.9697 178.068 31.7626 178.068 30.4091C178.068 29.0556 177.881 27.8485 177.508 26.7879C177.144 25.7273 176.604 24.8889 175.886 24.2727C175.169 23.6566 174.275 23.3485 173.205 23.3485C172.124 23.3485 171.215 23.6566 170.477 24.2727C169.75 24.8889 169.199 25.7273 168.826 26.7879C168.462 27.8485 168.28 29.0556 168.28 30.4091C168.28 31.7626 168.462 32.9697 168.826 34.0303C169.199 35.0909 169.75 35.9293 170.477 36.5455C171.215 37.1515 172.124 37.4545 173.205 37.4545ZM195.28 28.5455V42H188.826V18.7273H194.977V22.8333H195.25C195.765 21.4798 196.629 20.4091 197.841 19.6212C199.053 18.8232 200.523 18.4242 202.25 18.4242C203.866 18.4242 205.275 18.7778 206.477 19.4848C207.679 20.1919 208.614 21.202 209.28 22.5152C209.947 23.8182 210.28 25.3737 210.28 27.1818V42H203.826V28.3333C203.836 26.9091 203.472 25.798 202.735 25C201.997 24.1919 200.982 23.7879 199.689 23.7879C198.821 23.7879 198.053 23.9747 197.386 24.3485C196.73 24.7222 196.215 25.2677 195.841 25.9848C195.477 26.6919 195.29 27.5455 195.28 28.5455ZM225.883 42.4545C223.529 42.4545 221.494 41.9545 219.777 40.9545C218.069 39.9444 216.751 38.5404 215.822 36.7424C214.893 34.9343 214.428 32.8384 214.428 30.4545C214.428 28.0505 214.893 25.9495 215.822 24.1515C216.751 22.3434 218.069 20.9394 219.777 19.9394C221.494 18.9293 223.529 18.4242 225.883 18.4242C228.236 18.4242 230.266 18.9293 231.973 19.9394C233.691 20.9394 235.014 22.3434 235.943 24.1515C236.872 25.9495 237.337 28.0505 237.337 30.4545C237.337 32.8384 236.872 34.9343 235.943 36.7424C235.014 38.5404 233.691 39.9444 231.973 40.9545C230.266 41.9545 228.236 42.4545 225.883 42.4545ZM225.913 37.4545C226.984 37.4545 227.878 37.1515 228.595 36.5455C229.312 35.9293 229.852 35.0909 230.216 34.0303C230.59 32.9697 230.777 31.7626 230.777 30.4091C230.777 29.0556 230.59 27.8485 230.216 26.7879C229.852 25.7273 229.312 24.8889 228.595 24.2727C227.878 23.6566 226.984 23.3485 225.913 23.3485C224.832 23.3485 223.923 23.6566 223.186 24.2727C222.458 24.8889 221.908 25.7273 221.534 26.7879C221.17 27.8485 220.989 29.0556 220.989 30.4091C220.989 31.7626 221.17 32.9697 221.534 34.0303C221.908 35.0909 222.458 35.9293 223.186 36.5455C223.923 37.1515 224.832 37.4545 225.913 37.4545ZM115.076 73.8333H108.439C108.318 72.9747 108.071 72.2121 107.697 71.5455C107.323 70.8687 106.843 70.2929 106.258 69.8182C105.672 69.3434 104.995 68.9798 104.227 68.7273C103.47 68.4747 102.646 68.3485 101.758 68.3485C100.152 68.3485 98.7525 68.7475 97.5606 69.5455C96.3687 70.3333 95.4444 71.4848 94.7879 73C94.1313 74.505 93.803 76.3333 93.803 78.4848C93.803 80.697 94.1313 82.5556 94.7879 84.0606C95.4545 85.5657 96.3838 86.702 97.5758 87.4697C98.7677 88.2374 100.146 88.6212 101.712 88.6212C102.591 88.6212 103.404 88.5051 104.152 88.2727C104.909 88.0404 105.581 87.702 106.167 87.2576C106.753 86.803 107.237 86.2525 107.621 85.6061C108.015 84.9596 108.288 84.2222 108.439 83.3939L115.076 83.4242C114.904 84.8485 114.475 86.2222 113.788 87.5455C113.111 88.8586 112.197 90.0354 111.045 91.0758C109.904 92.1061 108.54 92.9242 106.955 93.5303C105.379 94.1263 103.596 94.4242 101.606 94.4242C98.8384 94.4242 96.3636 93.798 94.1818 92.5455C92.0101 91.2929 90.2929 89.4798 89.0303 87.1061C87.7778 84.7323 87.1515 81.8586 87.1515 78.4848C87.1515 75.101 87.7879 72.2222 89.0606 69.8485C90.3333 67.4747 92.0606 65.6667 94.2424 64.4242C96.4242 63.1717 98.8788 62.5455 101.606 62.5455C103.404 62.5455 105.071 62.798 106.606 63.303C108.152 63.8081 109.52 64.5455 110.712 65.5151C111.904 66.4747 112.874 67.6515 113.621 69.0455C114.379 70.4394 114.864 72.0354 115.076 73.8333ZM126.114 80.5455V94H119.659V62.9697H125.932V74.8333H126.205C126.73 73.4596 127.578 72.3838 128.75 71.6061C129.922 70.8182 131.391 70.4242 133.159 70.4242C134.775 70.4242 136.184 70.7778 137.386 71.4848C138.598 72.1818 139.538 73.1869 140.205 74.5C140.881 75.803 141.215 77.3636 141.205 79.1818V94H134.75V80.3333C134.76 78.899 134.396 77.7828 133.659 76.9848C132.932 76.1869 131.912 75.7879 130.598 75.7879C129.72 75.7879 128.942 75.9747 128.265 76.3485C127.598 76.7222 127.073 77.2677 126.689 77.9848C126.316 78.6919 126.124 79.5455 126.114 80.5455ZM152.92 94.4394C151.436 94.4394 150.112 94.1818 148.951 93.6667C147.789 93.1414 146.87 92.3687 146.193 91.3485C145.527 90.3182 145.193 89.0354 145.193 87.5C145.193 86.2071 145.431 85.1212 145.905 84.2424C146.38 83.3636 147.027 82.6566 147.845 82.1212C148.663 81.5859 149.592 81.1818 150.633 80.9091C151.683 80.6364 152.784 80.4444 153.936 80.3333C155.289 80.1919 156.38 80.0606 157.208 79.9394C158.037 79.8081 158.638 79.6162 159.011 79.3636C159.385 79.1111 159.572 78.7374 159.572 78.2424V78.1515C159.572 77.1919 159.269 76.4495 158.663 75.9242C158.067 75.399 157.218 75.1364 156.117 75.1364C154.956 75.1364 154.032 75.3939 153.345 75.9091C152.658 76.4141 152.203 77.0505 151.981 77.8182L146.011 77.3333C146.314 75.9192 146.91 74.697 147.799 73.6667C148.688 72.6263 149.835 71.8283 151.239 71.2727C152.653 70.7071 154.289 70.4242 156.148 70.4242C157.441 70.4242 158.678 70.5758 159.86 70.8788C161.052 71.1818 162.107 71.6515 163.027 72.2879C163.956 72.9242 164.688 73.7424 165.223 74.7424C165.759 75.7323 166.027 76.9192 166.027 78.303V94H159.905V90.7727H159.723C159.35 91.5 158.85 92.1414 158.223 92.697C157.597 93.2424 156.845 93.6717 155.966 93.9848C155.087 94.2879 154.072 94.4394 152.92 94.4394ZM154.769 89.9848C155.718 89.9848 156.557 89.798 157.284 89.4242C158.011 89.0404 158.582 88.5253 158.996 87.8788C159.41 87.2323 159.617 86.5 159.617 85.6818V83.2121C159.415 83.3434 159.138 83.4646 158.784 83.5758C158.441 83.6768 158.052 83.7727 157.617 83.8636C157.183 83.9444 156.749 84.0202 156.314 84.0909C155.88 84.1515 155.486 84.2071 155.133 84.2576C154.375 84.3687 153.713 84.5455 153.148 84.7879C152.582 85.0303 152.143 85.3586 151.83 85.7727C151.516 86.1768 151.36 86.6818 151.36 87.2879C151.36 88.1667 151.678 88.8384 152.314 89.303C152.961 89.7576 153.779 89.9848 154.769 89.9848ZM183.413 70.7273V75.5758H169.398V70.7273H183.413ZM172.58 65.1515H179.034V86.8485C179.034 87.4444 179.125 87.9091 179.307 88.2424C179.489 88.5657 179.741 88.7929 180.064 88.9242C180.398 89.0556 180.782 89.1212 181.216 89.1212C181.519 89.1212 181.822 89.096 182.125 89.0455C182.428 88.9848 182.66 88.9394 182.822 88.9091L183.837 93.7121C183.514 93.8131 183.059 93.9293 182.473 94.0606C181.888 94.202 181.176 94.2879 180.337 94.3182C178.782 94.3788 177.418 94.1717 176.246 93.697C175.085 93.2222 174.181 92.4848 173.534 91.4848C172.888 90.4848 172.569 89.2222 172.58 87.697V65.1515Z" fill="white"/>
</svg>
